<svg xmlns="http://www.w3.org/2000/svg" viewBox="0 0 96.07 34.47"><defs><style>.cls-1{fill:#6dc497}</style></defs><g id="レイヤー_2" data-name="レイヤー 2"><g id="レイヤー_1-2" data-name="レイヤー 1"><path class="cls-1" d="M5.84 23.72C2.89 23.72 0 21.91 0 17s2.89-6.69 5.84-6.69a5.37 5.37 0 014.32 1.83L8.35 13.9a3 3 0 00-2.51-1.24 3 3 0 00-2.43 1.16A4.87 4.87 0 002.64 17a4.94 4.94 0 00.77 3.21 3 3 0 002.43 1.16 3.06 3.06 0 002.51-1.24l1.81 1.73a5.4 5.4 0 01-4.32 1.86zm15.51-.15v-1.19a4.33 4.33 0 01-3.49 1.34 4.64 4.64 0 01-3.52-1.19 4 4 0 01-1-2.81c0-2.2 1.52-3.78 4.52-3.78h3.44V15c0-1.65-.83-2.45-2.87-2.45a3.06 3.06 0 00-2.87 1.26l-1.73-1.63c1.24-1.44 2.53-1.88 4.7-1.88 3.59 0 5.4 1.52 5.4 4.49v8.77zm-.05-5.79h-3.08c-1.55 0-2.35.69-2.35 1.88s.75 1.86 2.4 1.86a3.11 3.11 0 002.46-.75 2.59 2.59 0 00.57-1.93zm12.22 5.94A7.19 7.19 0 0128 21.83l1.73-1.73a5.07 5.07 0 003.77 1.37c1.6 0 2.87-.57 2.87-1.81 0-.88-.49-1.44-1.76-1.55l-2.09-.18c-2.46-.2-3.88-1.32-3.88-3.62 0-2.56 2.2-4 4.94-4a7.2 7.2 0 014.86 1.47l-1.64 1.68a4.93 4.93 0 00-3.23-1c-1.57 0-2.37.7-2.37 1.68 0 .78.41 1.37 1.8 1.5l2.07.18c2.46.21 3.91 1.37 3.91 3.7.02 2.78-2.33 4.2-5.46 4.2zm11.89-5.94c0 2.25 1.19 3.67 3.34 3.67a3.91 3.91 0 003.17-1.35l1.69 1.58a6.19 6.19 0 01-4.92 2C45.41 23.72 42.8 22 42.8 17c0-4.24 2.2-6.69 5.56-6.69s5.56 2.58 5.56 6.3v1.17zm5.53-3.62a2.7 2.7 0 00-2.58-1.66 2.74 2.74 0 00-2.61 1.66 4.16 4.16 0 00-.34 1.78h5.89a4 4 0 00-.36-1.78z"/><circle class="cls-1" cx="78.84" cy="17.24" r="17.24"/><path d="M73.66 25.17v-2l6.06-7.37a3 3 0 00.84-2.1 2.31 2.31 0 10-4.62 0h-2.26a4.29 4.29 0 014.58-4.44 4.23 4.23 0 014.56 4.42 4.91 4.91 0 01-1.49 3.41l-4.93 6h6.42v2z" fill="#fff"/></g></g></svg>