<svg xmlns="http://www.w3.org/2000/svg" viewBox="0 0 38.93 51.34"><defs><style>.cls-1{fill:#fff}</style></defs><g id="レイヤー_2" data-name="レイヤー 2"><g id="レイヤー_1-2" data-name="レイヤー 1"><g id="_3poZll" data-name="3poZll"><path class="cls-1" d="M34.89 47.41H0V0h34.89zm-32.7-2.24h30.48V2.23H2.19z"/><path class="cls-1" d="M4 51.34v-2.1h32.79V3.93h2.14v47.41zm.65-44.21V5h25.57v2.13z"/><path class="cls-1" d="M4.65 18v-2.11h25.57V18zm0-5.44v-2.07h25.57v2.07zM28 40.45v2.1H4.68v-2.1zM4.83 30.69c-1-3.28 1.25-7.53 4.68-8.88a5.18 5.18 0 01.3.63c.75 2.1 1.48 4.21 2.26 6.45zM19.76 34l-5.82-4.59 6-4.31a7.87 7.87 0 01-.18 8.9zm-.55-10l-6 4.34-2.43-6.87c2.31-1.25 6.43-.02 8.43 2.53zm-7 6.15l-.68 7.41A8.47 8.47 0 015 31.94zM19 35a8.49 8.49 0 01-6.23 2.72l.62-7.14zm4.56-11.37v-2.15h6.68v2.15zm6.66 5.12h-6.64v-2.2h6.64z"/></g></g></g></svg>