<svg xmlns="http://www.w3.org/2000/svg" viewBox="0 0 66.8 116.97"><g data-name="レイヤー 2"><g data-name="レイヤー 1"><path d="M25.66 64.77a5.06 5.06 0 01-5.3-5.27v-8.17a5.06 5.06 0 015.3-5.28A5.09 5.09 0 0131 51.33v8.17a5.08 5.08 0 01-5.34 5.27zm2.68-13.36c0-1.79-1-3-2.68-3s-2.66 1.21-2.66 3v8c0 1.78 1 3 2.67 3s2.68-1.22 2.68-3zm16.34 11.94a5.34 5.34 0 01-3.88 1.44 5.53 5.53 0 01-3.93-1.42 5.21 5.21 0 01-1.39-3.51h2.63c.21 1.63 1 2.56 2.69 2.56a2.62 2.62 0 001.91-.73 4.42 4.42 0 00.88-3.23c0-2.2-.57-3.85-2.69-3.85a2.5 2.5 0 00-2.61 1.65h-2.4v-10h9.93v2.35h-7.55v4.86a4.23 4.23 0 013-1.06 4.52 4.52 0 013.31 1.19 6.51 6.51 0 011.6 4.91c.05 1.92-.18 3.49-1.5 4.84z" fill="#dee426"/><path d="M66.28 58.52c0 16-.13 32 .07 48a9.51 9.51 0 01-10 10c-15.46-.23-30.93-.2-46.39 0A9.41 9.41 0 01.45 107C.55 74.59.5 42.23.5 9.88.5 4.15 4.2.45 9.91.45H57c5.56 0 9.32 3.77 9.32 9.37zm-8 37.26V14.15H8.58v81.63zM39.73 7.71h0a1.52 1.52 0 00-1.53-1.52h-9.57a1.52 1.52 0 00-1.52 1.52h0a1.52 1.52 0 001.52 1.52h9.57a1.52 1.52 0 001.53-1.52zm-6.23 92.93a5.75 5.75 0 00-6 5.79 5.88 5.88 0 1011.75.21 5.73 5.73 0 00-5.75-6z" fill="none" stroke="#4c4949" stroke-miterlimit="10" stroke-width=".9"/></g></g></svg>