<svg xmlns="http://www.w3.org/2000/svg" viewBox="0 0 66.8 116.97"><g data-name="レイヤー 2"><g data-name="レイヤー 1"><path d="M25.66 64.77a5.06 5.06 0 01-5.3-5.27v-8.17a5.06 5.06 0 015.3-5.28A5.09 5.09 0 0131 51.33v8.17a5.08 5.08 0 01-5.34 5.27zm2.68-13.36c0-1.79-1-3-2.68-3s-2.66 1.21-2.66 3v8c0 1.78 1 3 2.67 3s2.68-1.22 2.68-3zm12.05 13.2V49.08l-3.6 3.15v-2.92l3.6-3.1H43v18.4z" fill="#dee426"/><path d="M66.28 58.52c0 16-.13 32 .07 48a9.51 9.51 0 01-10 10c-15.46-.23-30.93-.2-46.39 0A9.41 9.41 0 01.45 107C.55 74.59.5 42.23.5 9.88.5 4.15 4.2.45 9.91.45H57c5.56 0 9.32 3.77 9.32 9.37zm-8 37.26V14.15H8.58v81.63zM39.73 7.71h0a1.52 1.52 0 00-1.53-1.52h-9.57a1.52 1.52 0 00-1.52 1.52h0a1.52 1.52 0 001.52 1.52h9.57a1.52 1.52 0 001.53-1.52zm-6.23 92.93a5.75 5.75 0 00-6 5.79 5.88 5.88 0 1011.75.21 5.73 5.73 0 00-5.75-6z" fill="none" stroke="#4c4949" stroke-miterlimit="10" stroke-width=".9"/></g></g></svg>