<svg xmlns="http://www.w3.org/2000/svg" viewBox="0 0 104.43 37.75"><defs><style>.cls-1{fill:#fff}</style></defs><g id="レイヤー_2" data-name="レイヤー 2"><g id="レイヤー_1-2" data-name="レイヤー 1"><path class="cls-1" d="M27.44 9.94v16.53a2.8 2.8 0 01-2.8 2.8h-9.3a1.32 1.32 0 00-.61.16L6.74 34l.89-3.18a1.24 1.24 0 00-1.18-1.55H5.24a2.8 2.8 0 01-2.8-2.8V7.07a2.81 2.81 0 012.8-2.8h16.19l.57-.58c.63-.61 1.3-1.24 2-1.86H5.24A5.25 5.25 0 000 7.07v19.4a5.25 5.25 0 004.85 5.23L3.6 36.21A1.24 1.24 0 004 37.5a1.21 1.21 0 00.75.25 1.15 1.15 0 00.6-.16l10.28-5.88h9a5.25 5.25 0 005.24-5.24V7.22q-.69.71-1.35 1.44c-.36.42-.72.85-1.08 1.28z"/><path class="cls-1" d="M7.84 12.05a9 9 0 013 .78 32.58 32.58 0 013.53 1.68.39.39 0 00.59-.11c2.7-3.2 5.54-6.28 8.55-9.2a36.8 36.8 0 014.73-4A6.63 6.63 0 0130.7 0a2 2 0 011 .08 1 1 0 01.6 1.62 3.92 3.92 0 01-.71.86C30 4.12 28.42 5.62 27 7.26a55.53 55.53 0 00-6.56 9.2 66.18 66.18 0 00-4.2 8.74c-.13.34-.31.63-.72.67a.84.84 0 01-.84-.55 59.8 59.8 0 00-4.38-6.85 23.43 23.43 0 00-3.78-4 1.34 1.34 0 01.44-2.22 2.61 2.61 0 01.88-.2z" id="gfYiMs"/><path class="cls-1" d="M42.19 8.57a4.67 4.67 0 00-4.57 2.71 14.37 14.37 0 00-1.08 6.32 15.9 15.9 0 00.88 6.21 4.72 4.72 0 004.77 2.82 4.64 4.64 0 004.54-2.71 14.53 14.53 0 001.07-6.32 15.91 15.91 0 00-.87-6.21 4.69 4.69 0 00-4.74-2.82zm0 16c-2.32 0-2.63-3.31-2.63-6.55 0-5 .83-7.31 2.63-7.31 1.28 0 2.6.76 2.6 6.39 0 4.44-.45 7.43-2.6 7.43zm13.52-10.96h-.15a3.18 3.18 0 00-.9.13 2.3 2.3 0 00-1.54 1.12v-1.23h-2.53v17.16l2.58-.79v-4.54h.06a2.55 2.55 0 001.77 1 3 3 0 00.62.06h.07a3.5 3.5 0 003-1.79 8.88 8.88 0 001.15-4.78c-.05-2.95-.76-6.34-4.13-6.34zm-2.56 2.06zm1.91 8.83c-1.27 0-1.89-1.49-1.89-4.56s.62-4.55 1.89-4.55 1.86 1.53 1.86 4.55-.62 4.56-1.86 4.56zM67 13.4c-3.18 0-4.79 2.09-4.79 6.21 0 4.95 1.33 6.88 4.73 6.88a4 4 0 004.32-4.12h-2.41a3.28 3.28 0 01-.42 1.46 1.57 1.57 0 01-1.41.79c-1.86 0-2-2.1-2.07-4.44h6.59v-1.82a5.33 5.33 0 00-1.21-3.68A4.38 4.38 0 0067 13.4zm1.92 5.06H65c0-1.44.35-3.16 2-3.16 1.84 0 2 2.21 2 3.16h-.06zm11.45-4.85h-.06a5 5 0 00-1.4.16 2.85 2.85 0 00-1.79 1.11v-1.27h-2.63v12.66l2.72-.76v-8.17A1.77 1.77 0 0179 15.5a1.42 1.42 0 011.42 1.6v9.17l2.72-.76v-9.33a2.57 2.57 0 00-2.77-2.57zm10.51-.21c-3.22 0-4.86 2.09-4.86 6.21 0 4.89 1.4 6.88 4.8 6.88a4 4 0 004.32-4.12h-2.43a3.28 3.28 0 01-.42 1.46 1.57 1.57 0 01-1.41.79 1.73 1.73 0 01-1.32-.5c-.74-.76-.79-2.34-.75-3.94h6.56v-1.82a5.33 5.33 0 00-1.21-3.68 4.38 4.38 0 00-3.28-1.28zm1.92 5.06h-4c0-1.44.35-3.16 2-3.16 1.85 0 2 2.21 2 3.16zm9.81-4.56A2.84 2.84 0 00101 15v-1.39h-2.65v12.66l2.72-.76v-6.63c0-2.55 1.59-3 2.54-3a5.58 5.58 0 01.82 0V13.6a7 7 0 00-1.82.3z"/></g></g></svg>