<svg xmlns="http://www.w3.org/2000/svg" viewBox="0 0 215.91 78.05"><g data-name="レイヤー 2"><g data-name="レイヤー 1"><path d="M56.74 20.56v34.17a5.8 5.8 0 01-5.8 5.8H31.71a2.51 2.51 0 00-1.25.33L13.94 70.3l1.83-6.58a2.52 2.52 0 00-.43-2.2 2.48 2.48 0 00-2-1h-2.51A5.8 5.8 0 015 54.73V14.62a5.8 5.8 0 015.79-5.79H44.3l1.22-1.2c1.32-1.27 2.69-2.56 4.14-3.84H10.83A10.84 10.84 0 000 14.62v40.11a10.85 10.85 0 0010 10.81l-2.55 9.32a2.53 2.53 0 00.88 2.66 2.49 2.49 0 001.55.53 2.54 2.54 0 001.25-.33l21.25-12.15h18.56a10.85 10.85 0 0010.84-10.84v-39.8c-1 1-1.88 1.95-2.78 3s-1.52 1.73-2.26 2.63z"/><path d="M16.21 24.92a18.47 18.47 0 016.14 1.61A66 66 0 0129.66 30a.79.79 0 001.2-.23 258.4 258.4 0 0117.68-19 75.09 75.09 0 019.79-8.28A13.46 13.46 0 0163.48.07a3.77 3.77 0 012.05.17 2.15 2.15 0 011.23 3.34 8.4 8.4 0 01-1.47 1.78c-3.24 3.16-6.54 6.26-9.55 9.66A115.06 115.06 0 0042.17 34a138.78 138.78 0 00-8.67 18.1c-.28.71-.65 1.3-1.48 1.38a1.74 1.74 0 01-1.76-1.13 122.56 122.56 0 00-9-14.16 49.79 49.79 0 00-7.86-8.39c-1.68-1.37-.76-4 .91-4.58a5.36 5.36 0 011.9-.3z" fill="#6dc497"/><path d="M87.22 17.71c-4.46 0-7.55 1.84-9.44 5.61-1.5 3-2.23 7.27-2.23 13.07 0 4.56.22 9.28 1.82 12.83 1.77 3.94 5 5.85 9.85 5.85 4.44 0 7.51-1.84 9.39-5.61 1.5-3 2.22-7.28 2.22-13.07 0-4.57-.22-9.28-1.81-12.84-1.76-3.93-4.97-5.84-9.8-5.84zm0 33c-4.79 0-5.43-6.84-5.43-13.54 0-10.3 1.72-15.1 5.43-15.1 2.66 0 5.38 1.57 5.38 13.19 0 9.27-.92 15.45-5.38 15.45zm27.96-22.57h-.3a6.42 6.42 0 00-1.87.26 4.71 4.71 0 00-3.17 2.31.1.1 0 01-.09 0 .08.08 0 010-.07l-.08-2.55h-5v35.57l5.32-1.57v-9.45a.07.07 0 01.13 0 5.29 5.29 0 003.65 2 6.5 6.5 0 001.29.12h.14a7.31 7.31 0 006.11-3.7 18.51 18.51 0 002.37-9.88c-.06-5.95-1.52-13.04-8.5-13.04zm-5.3 4.27a.07.07 0 01-.06 0 .07.07 0 01-.06-.07.08.08 0 01.08-.07.07.07 0 01.06 0 .06.06 0 010 .07zm4 18.25c-2.63 0-3.91-3.08-3.91-9.42s1.28-9.43 3.91-9.43 3.85 3.17 3.85 9.43-1.33 9.42-3.89 9.42zm24.69-22.96c-6.57 0-9.91 4.32-9.91 12.85 0 10.24 2.75 14.22 9.79 14.22a8.84 8.84 0 006.75-2.63 9 9 0 002.18-5.89h-5a6.89 6.89 0 01-.89 3 3.24 3.24 0 01-2.9 1.63c-3.84 0-4.22-4.35-4.28-9.18a.14.14 0 010-.06h13.62V38a11 11 0 00-2.51-7.6 9 9 0 00-6.85-2.7zm4 10.48h-8.17a.08.08 0 01-.07-.08c0-3 .71-6.53 4.1-6.53 3.8 0 4.21 4.57 4.21 6.53a.08.08 0 01-.11.08zm23.59-10.04H166a10.26 10.26 0 00-2.89.34 5.75 5.75 0 00-3.69 2.29.07.07 0 01-.08 0 .07.07 0 01-.06-.07v-2.56H154v26.17l5.63-1.58V35.85a3.64 3.64 0 013.73-3.79c1.78 0 2.94 1.29 2.94 3.3v19l5.62-1.58V33.45c0-2.59-1.77-5.23-5.74-5.31zm21.74-.44c-6.66 0-10 4.32-10 12.85 0 10.1 2.87 14.22 9.92 14.22a8.85 8.85 0 006.76-2.63 9 9 0 002.17-5.89h-5a6.86 6.86 0 01-.88 3 3.24 3.24 0 01-2.91 1.63 3.61 3.61 0 01-2.73-1c-1.52-1.57-1.64-4.85-1.55-8.16a.08.08 0 01.08-.07h13.56V38a11 11 0 00-2.5-7.6 9 9 0 00-6.92-2.7zm4 10.48h-8.2a.09.09 0 01-.08-.08c0-3 .72-6.53 4.1-6.53 3.81 0 4.22 4.57 4.22 6.53a.08.08 0 01-.07.08zm20.26-9.44a5.91 5.91 0 00-3.37 2.26.07.07 0 01-.13 0v-2.86h-5.32v26.17l5.66-1.58V39c0-5.26 3.29-6.17 5.25-6.24a9.57 9.57 0 011.7 0v-4.64a14.19 14.19 0 00-3.79.62z"/></g></g></svg>