<svg xmlns="http://www.w3.org/2000/svg" viewBox="0 0 268.19 161.07"><defs><style>.cls-1{fill:#fff}.cls-2{fill:#dee426}.cls-4{fill:#6dc497}</style></defs><g id="レイヤー_2" data-name="レイヤー 2"><g id="レイヤー_1-2" data-name="レイヤー 1"><circle class="cls-1" cx="50.22" cy="29.36" r="29.36"/><path class="cls-1" d="M44.21 52.29l6.95 17.38 7.18-17.95"/><path class="cls-2" d="M64.75 17.56H47a2.23 2.23 0 00-1.75.62 2.5 2.5 0 00-.42 1.91h7.71c2.6 0 4.1 1.51 4.1 4.14v10.19a3 3 0 01.65-.07 4.29 4.29 0 012.3.89l.31.18c1.82 1.12 3.7 2.27 5.56 3.38a1.8 1.8 0 00.54.2 1.47 1.47 0 00-.11-.5c-.45-.9-.91-1.79-1.4-2.73l-.64-1.24h.76c1.81-.2 2.39-.83 2.39-2.63V19.83a2 2 0 00-2.25-2.27z"/><path class="cls-2" d="M52.51 21.9H34.83c-1.56 0-2.28.71-2.29 2.24v12.3c0 1.55.71 2.25 2.28 2.25h5.62L39.75 40c-.5 1-1 1.87-1.41 2.77a1.41 1.41 0 00-.11.48 1.35 1.35 0 00.48-.13l2.69-1.63c1.28-.78 2.61-1.59 3.93-2.36a3.57 3.57 0 011.6-.46h5.62c1.57 0 2.24-.68 2.25-2.27V24.2c.01-1.61-.67-2.3-2.29-2.3zm.81 15.32a1.21 1.21 0 01-.9.25h-6.11a2.64 2.64 0 00-1.12.32c-.81.46-1.62 1-2.41 1.44l-.93.57-.12.07-.32-.32 1.05-2.07h-7.5a1.25 1.25 0 01-.91-.26 1.22 1.22 0 01-.27-.92v-12a1 1 0 011.13-1.12h17.52a1.17 1.17 0 01.88.26 1.07 1.07 0 01.25.85v12.13a1.14 1.14 0 01-.24.8z"/><path class="cls-2" d="M49.24 29.51H38.17c-1 0-1.14.42-1.15.78a.74.74 0 00.19.54 1.4 1.4 0 001 .29h11c.43 0 1.15-.11 1.17-.8a.71.71 0 00-.18-.51 1.36 1.36 0 00-.96-.3zM38.1 27.19h9.84c.43 0 1.14-.11 1.15-.81a.69.69 0 00-.19-.51 1.35 1.35 0 00-.95-.29h-9.86c-.72 0-1 .21-1.07.77a.67.67 0 00.17.54 1.19 1.19 0 00.91.3zm7.53 6.25h-7.56c-1 0-1 .59-1 .79 0 .65.57.8 1 .8h7.56c.69 0 1-.27 1-.8.04-.34-.06-.79-1-.79z"/><circle class="cls-1" cx="135.31" cy="29.36" r="29.36"/><path class="cls-1" d="M129.31 52.29l6.95 17.38 7.17-17.95"/><path class="cls-2" d="M148.85 33V16.08a2 2 0 00-2.25-2.25h-8.15c-.83 0-1.18-.21-1.34-.88a.64.64 0 00-.74-.5h-.07a14.74 14.74 0 01-1.88 0c-.86-.09-1.34.22-1.5 1-.07.3-.23.39-.64.39H124a2.07 2.07 0 00-2.32 2.34v27.19a2 2 0 002.07 2h23.08a2.34 2.34 0 001.15-.33 2.07 2.07 0 00.93-2c-.06-3.3-.06-6.69-.06-10.04zM131.3 16.28h7.52a.1.1 0 00.1-.11v-.92h7.59c.72 0 .84.11.84.84v27c0 .67-.12.8-.77.8H124c-.7 0-.81-.12-.81-.81v-27c0-.7.12-.82.81-.82h7.24v.92a.11.11 0 00.06.1z"/><rect class="cls-2" x="132.63" y="27.46" width="12.09" height="1.2" rx=".58"/><path class="cls-2" d="M133.23 21.14h10.9a.59.59 0 100-1.17h-10.9a.59.59 0 000 1.17z"/><rect class="cls-2" x="132.65" y="22.75" width="12.07" height="1.2" rx=".58"/><path class="cls-2" d="M133.21 31.42h10.93a.58.58 0 100-1.16h-10.93a.58.58 0 100 1.16zM144.14 35h-10.93a.58.58 0 00-.58.58.58.58 0 00.58.58h10.93a.59.59 0 000-1.17z"/><rect class="cls-2" x="132.64" y="37.74" width="12.08" height="1.19" rx=".58"/><path class="cls-2" d="M130 35.59a.56.56 0 00-.79 0l-1.75 1.55a.36.36 0 01-.26.09.34.34 0 01-.24-.13l-.46-.55a.55.55 0 00-.39-.2.6.6 0 00-.43.15.55.55 0 00-.18.38.56.56 0 00.14.41l1.2 1.33a.6.6 0 00.42.19.53.53 0 00.37-.15l2.37-2.18a.54.54 0 00.19-.39.53.53 0 00-.14-.4zm0-15.15a.56.56 0 00-.79 0l-1.75 1.54a.3.3 0 01-.25.09.36.36 0 01-.23-.11l-.49-.56a.55.55 0 00-.39-.2.59.59 0 00-.43.17.55.55 0 000 .78l1.19 1.32a.58.58 0 00.42.18.57.57 0 00.37-.14l2.35-2.18a.54.54 0 00.19-.39.56.56 0 00-.14-.41zM126.86 31a.58.58 0 00.39.15.54.54 0 00.38-.14L130 28.9a.55.55 0 000-.79V28a.54.54 0 00-.39-.19.56.56 0 00-.41.14l-1.68 1.51a.34.34 0 01-.46 0l-.67-.63a.57.57 0 00-.81 0 .55.55 0 000 .77z"/><circle class="cls-1" cx="220.41" cy="29.36" r="29.36"/><path class="cls-1" d="M214.4 52.29l6.95 17.38 7.17-17.95"/><g id="LN7oPW"><path class="cls-2" d="M209.36 40.62a6.71 6.71 0 018.73-4 5.93 5.93 0 013.21-3.31 6 6 0 014.61 0 5.33 5.33 0 017.25-2.83c.1-.19.19-.39.29-.57a4.7 4.7 0 018.86 1.92.87.87 0 01-.16.6.74.74 0 01-.57.15c-.28 0-.37-.28-.42-.54a7.59 7.59 0 00-.35-1.46 3.47 3.47 0 00-3.37-2 3.57 3.57 0 00-3.15 2.29.4.4 0 00.12.51 5.2 5.2 0 011.7 3.81.58.58 0 01-.56.59.57.57 0 01-.59-.55 6.54 6.54 0 00-.09-.89 4.05 4.05 0 00-3.05-3.07 3.92 3.92 0 00-4.12 1.35 11.72 11.72 0 00-.75 1.15 22.56 22.56 0 011.53 1.66 5.53 5.53 0 011.08 3.17c0 .46-.18.73-.55.75s-.59-.25-.61-.7a4.57 4.57 0 00-1.77-3.65 4.75 4.75 0 00-6.89 1c-.2.28-.33.6-.5.89s-.07.3.12.42a6.57 6.57 0 012.87 4.91v.34c0 .44-.2.7-.55.72s-.57-.24-.62-.66a8.63 8.63 0 00-.3-1.61 5.38 5.38 0 00-5.13-3.68 5.45 5.45 0 00-5.15 3.63.35.35 0 00.12.47 7 7 0 012.87 5.42c0 .4-.11.64-.39.73a.58.58 0 01-.77-.59 6 6 0 00-.7-2.67 5.91 5.91 0 00-11 1.55 8.08 8.08 0 00-.15 1.1c0 .38-.24.63-.55.63a.59.59 0 01-.58-.67 7.08 7.08 0 019.76-6.37z"/><path class="cls-2" d="M202.09 34.42a4.32 4.32 0 114.32 4.34 4.31 4.31 0 01-4.32-4.34zm4.33 3.17a3.17 3.17 0 10-3.18-3.16 3.17 3.17 0 003.18 3.16zM215.63 27a4.06 4.06 0 11-4 4.07 4.05 4.05 0 014-4.07zm-2.88 4a2.9 2.9 0 102.9-2.89 2.88 2.88 0 00-2.9 2.89zm10.87 1a3.67 3.67 0 113.68-3.64 3.66 3.66 0 01-3.68 3.64zm-2.49-3.67a2.51 2.51 0 102.5-2.5 2.5 2.5 0 00-2.5 2.46zm9.73.97a3.29 3.29 0 113.27-3.3 3.28 3.28 0 01-3.27 3.3zm0-5.41A2.13 2.13 0 10233 26a2.13 2.13 0 00-2.13-2.11zm6.67-2.89a3 3 0 11-2.87 3.16 3 3 0 012.87-3.16zm1.89 3a1.82 1.82 0 00-1.91-1.79 1.81 1.81 0 101.91 1.79z"/></g><path class="cls-2" d="M209.14 21.58a7.35 7.35 0 00-1.3-.74 6.11 6.11 0 00-8.43 5.5.71.71 0 00.18.5.55.55 0 00.41.16c.32 0 .53-.24.57-.63a8.86 8.86 0 01.13-.92 4.92 4.92 0 019.15-1.29 5.2 5.2 0 01.59 2.22.63.63 0 00.26.53.51.51 0 00.32.1.69.69 0 00.2 0c.29-.09.42-.34.4-.73a6.05 6.05 0 00-2.48-4.7zm-3.64-2.06a3.78 3.78 0 10-3.78-3.78 3.76 3.76 0 003.78 3.78zm-2.59-3.77a2.59 2.59 0 012.57-2.59 2.68 2.68 0 011.88.79 2.47 2.47 0 01.73 1.77 2.6 2.6 0 11-5.19 0z"/><path class="cls-1" d="M42.74 145.52v-59.9H6.3v59.9z"/><path d="M48.63 118.18c0 11.75-.09 23.51.06 35.25a7 7 0 01-7.32 7.31c-11.35-.17-22.7-.15-34 0a6.91 6.91 0 01-7-7c.08-23.74 0-47.48 0-71.22 0-4.2 2.71-6.92 6.9-6.92h34.52a6.5 6.5 0 016.84 6.88zM29.15 80.9h0A1.12 1.12 0 0028 79.78h-7a1.12 1.12 0 00-1.12 1.12h0A1.12 1.12 0 0021 82h7a1.12 1.12 0 001.15-1.1zm-4.57 68.18a4.23 4.23 0 00-4.39 4.26 4.35 4.35 0 004.23 4.46 4.39 4.39 0 004.4-4.31 4.23 4.23 0 00-4.24-4.41z" fill="none" stroke="#4c4949" stroke-miterlimit="10" stroke-width=".66" id="gNCM02"/><rect class="cls-4" x="14.91" y="107.1" width="19.22" height="19.22" rx="3.35"/><path class="cls-1" d="M29.27 114.1v6.28a1.07 1.07 0 01-1.07 1.07h-3.53a.46.46 0 00-.23.06l-3 1.73.34-1.21a.44.44 0 00-.08-.4.45.45 0 00-.37-.18h-.46a1.07 1.07 0 01-1.06-1.07V113a1.06 1.06 0 011.02-1H27l.23-.22c.24-.24.49-.47.76-.71h-7.16a2 2 0 00-2 2v7.37a2 2 0 001.85 2l-.48 1.71a.46.46 0 00.16.49.53.53 0 00.29.1.46.46 0 00.23-.06l3.9-2.24h3.42a2 2 0 002-2v-7.31l-.51.54z"/><path class="cls-1" d="M21.82 114.9a3.38 3.38 0 011.13.3 11 11 0 011.34.64.15.15 0 00.22 0c1-1.21 2.11-2.38 3.25-3.49a13.66 13.66 0 011.8-1.52 2.36 2.36 0 011-.44.59.59 0 01.37 0 .39.39 0 01.23.61 1.44 1.44 0 01-.27.33c-.6.58-1.2 1.15-1.76 1.77a21.56 21.56 0 00-2.49 3.5 25.29 25.29 0 00-1.64 3.3c-.05.13-.12.24-.28.25s-.25-.08-.32-.21a21.57 21.57 0 00-1.66-2.6 9.13 9.13 0 00-1.44-1.54.51.51 0 01.17-.84 1.07 1.07 0 01.35-.06z" id="gfYiMs"/><path d="M244.66 130.43c-4.1.17-9.78 1.69-9.78 4.45 0 2 3 2.27 4.49 2.27a19.72 19.72 0 006.39-1.15 18.81 18.81 0 00-.43 2.65c0 .09 0 .13-.11.15a22.17 22.17 0 01-5.14.63c-1 0-7.46 0-7.46-4.42 0-2.24 2-3.91 4.56-5.06a6.93 6.93 0 01-.57-2.86c0-.76 0-1.65.07-2.67 0-.69 0-1.67-.11-2.71v-.1c0-.07 0-.11.09-.11s1.86.24 2.64.37c.22 0 .35.15.35.26s-.15.26-.52.36c-.28 4-.28 4.15-.28 4.51a4.69 4.69 0 00.41 2.15c.63-.22 1.28-.39 2-.56 1-.26 2.36-.52 3.21-.76a.26.26 0 01.11 0c.11 0 .15.06.15.17zm6.96 8.8a12.22 12.22 0 01-1.26-5.85 7.31 7.31 0 010-.82c.23-4.21 1.17-7.79 1.36-10.09 0-.13 0-.17.11-.17a.4.4 0 01.13 0c2.28.56 2.6.65 2.6.89s-.26.3-.69.3a67.35 67.35 0 00-1.45 7.57 16.36 16.36 0 00-.16 1.95v.24c0 .3.05.46.09.46s.17-.18.28-.5c.18-.57.67-1.69 1.28-3.36 0 0 .54 1.38.87 2a16.78 16.78 0 00-1.5 5.92 5.26 5.26 0 00.05.89c0 .13 0 .13-.11.18zm15.12-11.88c-1.22.24-2.39.46-3.5.63 0 2.34.16 4.36.26 5.92a15.2 15.2 0 014.69 2.69l-1.63 1.65s-.06.06-.08.06-.05 0-.09-.06a9.56 9.56 0 00-2.8-2.22 3.77 3.77 0 01-4 3c-2.19 0-4.18-1.33-4.18-3 0-1 1-2.78 4.44-2.78a10 10 0 011.58.13c-.06-1.23-.15-3.12-.19-5.16-.95.11-2.13.22-2.86.22a9.2 9.2 0 01-2.41-.3l-.39-2a.23.23 0 010-.11.08.08 0 01.09-.09.18.18 0 01.1 0 10.93 10.93 0 003.1.52 17.56 17.56 0 002.35-.19v-1.63c0-.8 0-1.64-.07-2.53 0 0 1.69.06 2.3.13.39 0 .56.15.56.28s-.21.3-.6.39c-.07.56-.09 1.45-.11 1.67 0 .45 0 .91-.05 1.34 1.09-.19 2.22-.43 3.39-.71zm-7.05 7.65c-1.17 0-2.21.39-2.21 1 0 .41.6 1 2 1a1.91 1.91 0 002.08-1.73 7 7 0 00-1.87-.27z" fill="#4c4949"/><path d="M106 115.24v24.57a4.17 4.17 0 01-4.16 4.17H88a1.85 1.85 0 00-.9.23L75.22 151l1.31-4.74a1.8 1.8 0 00-1.75-2.26H73a4.17 4.17 0 01-4.16-4.17V111a4.17 4.17 0 014.16-4.19h24l.88-.86c1-.91 1.94-1.85 3-2.76H73a7.8 7.8 0 00-7.81 7.81v28.83a7.81 7.81 0 007.22 7.77l-1.86 6.7a1.83 1.83 0 00.64 1.92 1.81 1.81 0 002 .14l15.28-8.74h13.34a7.8 7.8 0 007.79-7.79v-28.64c-.68.7-1.35 1.41-2 2.14s-1.08 1.26-1.6 1.91z"/><path class="cls-4" d="M76.85 118.38a13 13 0 014.41 1.16 46 46 0 015.26 2.46.57.57 0 00.86-.17 184.55 184.55 0 0112.72-13.63 53.19 53.19 0 017-6 9.62 9.62 0 013.7-1.74 2.86 2.86 0 011.48.12 1.55 1.55 0 01.88 2.41 6.12 6.12 0 01-1.06 1.27c-2.32 2.28-4.7 4.51-6.86 7a82.68 82.68 0 00-9.76 13.67 100 100 0 00-6.23 13c-.2.51-.47.93-1.07 1a1.26 1.26 0 01-1.18-.83 87.32 87.32 0 00-6.5-10.18 35.35 35.35 0 00-5.62-6 2 2 0 01.65-3.3 4 4 0 011.32-.24z" id="gfYiMs-2" data-name="gfYiMs"/><path d="M127.9 113.19a7 7 0 00-6.79 4c-1.08 2.15-1.6 5.23-1.6 9.39 0 3.29.16 6.67 1.31 9.23 1.27 2.83 3.59 4.2 7.08 4.2a6.91 6.91 0 006.75-4c1.08-2.16 1.6-5.23 1.6-9.4 0-3.28-.16-6.67-1.3-9.22-1.27-2.82-3.57-4.2-7.05-4.2zm0 23.73c-3.44 0-3.91-4.92-3.91-9.73 0-7.41 1.25-10.86 3.91-10.86 1.91 0 3.87 1.12 3.87 9.48 0 6.67-.66 11.11-3.87 11.11zm20.1-16.23h-.21a4.56 4.56 0 00-1.35.19 3.37 3.37 0 00-2.28 1.65h-.06l-.05-1.83h-3.65v25.54l3.83-1.13v-6.8a.05.05 0 010-.05.06.06 0 01.06 0 3.81 3.81 0 002.63 1.47 4.42 4.42 0 00.92.09h.1a5.27 5.27 0 004.4-2.67 13.32 13.32 0 001.7-7.1c.03-4.26-1.04-9.36-6.04-9.36zm-3.8 3.07v-.05a.06.06 0 01.06-.06.13.13 0 010 .06zm2.8 13.12c-1.89 0-2.81-2.21-2.81-6.77s.92-6.78 2.81-6.78 2.77 2.28 2.77 6.78-.89 6.77-2.77 6.77zm17.82-16.51c-4.73 0-7.12 3.11-7.12 9.24 0 7.36 2 10.23 7 10.23a6.35 6.35 0 004.86-1.9 6.43 6.43 0 001.56-4.22h-3.61a5.09 5.09 0 01-.63 2.17 2.34 2.34 0 01-2.09 1.17c-2.76 0-3-3.12-3.08-6.6h9.78v-2.66a7.9 7.9 0 00-1.79-5.46 6.52 6.52 0 00-4.88-1.97zm2.85 7.54h-5.88a.06.06 0 010-.06c0-2.14.51-4.69 2.95-4.69 2.73 0 3 3.28 3 4.69a.06.06 0 01-.07.06zm16.98-7.22h-.08a7.62 7.62 0 00-2.08.24 4.19 4.19 0 00-2.65 1.65h-.06c-.06 0 0 0 0 0v-1.86h-3.83v18.82l4.05-1.14v-12.16a2.62 2.62 0 012.68-2.73 2.11 2.11 0 012.11 2.37v13.63l4.05-1.14v-13.86c0-1.86-1.28-3.76-4.13-3.81zm15.64-.32c-4.79 0-7.22 3.11-7.22 9.24 0 7.27 2.06 10.23 7.13 10.23a6.35 6.35 0 004.86-1.9 6.48 6.48 0 001.56-4.22H203a5 5 0 01-.64 2.17 2.31 2.31 0 01-2.08 1.17 2.59 2.59 0 01-2-.74c-1.09-1.13-1.18-3.48-1.11-5.86v-.05H207v-2.66a7.9 7.9 0 00-1.79-5.46 6.52 6.52 0 00-4.92-1.92zm2.84 7.54h-5.87a.06.06 0 010-.06c0-2.14.51-4.69 2.95-4.69 2.73 0 3 3.28 3 4.69a.06.06 0 01-.08.06zm14.59-6.79a4.27 4.27 0 00-2.42 1.63h-.05v-2h-3.83v18.82l4.05-1.14v-9.85c0-3.78 2.36-4.43 3.77-4.48a7 7 0 011.22 0v-3.38a10.31 10.31 0 00-2.74.4zM66.05 89.07v.91c0 .83.06 1.24 1.71 1.24a21.91 21.91 0 003.33-.31 8.93 8.93 0 00-.36 1.18s0 .06-.07.06c-.86.09-1.93.15-2.74.15-2.15 0-2.92-.67-2.92-2 0-.74.08-4.19.08-4.19v-1c.25 0 1 0 1.26.07.1 0 .15.07.15.12s-.1.16-.29.19v2.43a15.4 15.4 0 003.79-1.72c.23.18.93.91.93 1.11s0 .08-.11.08a.67.67 0 01-.3-.09 28.81 28.81 0 01-4.46 1.77zm4.78-2.44a5.13 5.13 0 00-1.07-1.35l.62-.35a5.2 5.2 0 011.11 1.28zm1.09-.6a5.42 5.42 0 00-1.06-1.25l.59-.38a5.52 5.52 0 011.11 1.18zm4.25 3.18A6.09 6.09 0 0073.73 88l.61-.82a6.79 6.79 0 012.38 1.17zm-.62 3.48s-.11 0-.19-.12-.72-.78-.88-1 0-.06.08-.07c3.69-.64 6.11-3.81 6.88-5a9.82 9.82 0 00.44 1.23v.05a13.72 13.72 0 01-6.19 4.65c0 .13-.05.26-.14.26zm1.86-5.41a5.79 5.79 0 00-2.18-1.53l.64-.73a6.39 6.39 0 012.27 1.39zm3-.83a5.65 5.65 0 00-1.12-1.18l.57-.4A5 5 0 0181 86zm1-.72a4.88 4.88 0 00-1.12-1.1l.56-.42a4.36 4.36 0 011.15 1zM88 86h1.24c.11 0 .15-.08.22-.08a2 2 0 01.74.64c0 .07-.09.1-.23.14a14.7 14.7 0 01-2 2.13L88 93h-1.08l.08-3.35a12 12 0 01-2.77 1.48.07.07 0 01-.06 0 6.72 6.72 0 00-.95-.75 10.64 10.64 0 005.35-3.44l-4.18.06v-1H87v-.78a6.15 6.15 0 000-.8c1.29 0 1.42.07 1.42.2s-.11.16-.29.19a5.94 5.94 0 000 .67zm2.76 5.06a.09.09 0 01-.06 0 9.81 9.81 0 00-2.48-1.82l.69-.67a11.78 11.78 0 012.62 1.7zM94 86.74v-1h4.51c.08 0 .12-.08.19-.08s.82.54.82.67-.09.13-.22.15A18.26 18.26 0 0197.84 89a22 22 0 013 2.72l-1 .74a15.51 15.51 0 00-2.59-2.65 8.75 8.75 0 01-3.49 2.64.07.07 0 01-.06 0 6.3 6.3 0 00-1-.75 9.29 9.29 0 005.32-5zm15.13 5.53H108v-.43h-5.4v-1.08h5.4v-3.5h-5.37V86.2h6.48zm8.11.47a16.85 16.85 0 00-5.77-1.67l.45-1a23.23 23.23 0 015.76 1.51zm-.4-5.93a16.62 16.62 0 00-4.87-.66l.34-1a25.36 25.36 0 014.93.56zm-.36 2.58a13.62 13.62 0 00-4.38-.85l.37-1a19.1 19.1 0 014.34.73zm7.61 1.83h1.58v.94h-6.18v-.94h3.63l.22-2.45h-3.19v-.91h4.25zm10.91.52h-7.55v-1.11H135zm-.81-4.41h-5.92v-1.07h5.92zm10.75.06h-2.27c-.58 4.46-3.73 5.3-3.75 5.3a.09.09 0 01-.07 0 9.2 9.2 0 00-1.16-.75 4.83 4.83 0 003.8-4.52h-2.13a6.09 6.09 0 01-1.63 2.15 6.85 6.85 0 00-1.07-.41 7.88 7.88 0 002.65-4.52s.82.18 1.11.26.22.1.22.16-.15.15-.34.16a12.77 12.77 0 01-.43 1.23h5.12zm9.33 1.82h-7.64v-1.07h7.64zm4.34 0a6.09 6.09 0 00-2.44-1.21l.61-.82a6.79 6.79 0 012.38 1.17zm-.61 3.48c-.05 0-.11 0-.19-.12s-.72-.78-.87-1 0-.06.09-.07c3.69-.64 6.1-3.81 6.87-5a9.82 9.82 0 00.44 1.23.06.06 0 010 .05 13.72 13.72 0 01-6.19 4.65c-.02.13-.07.26-.15.26zm1.86-5.41a5.79 5.79 0 00-2.18-1.53l.65-.73a6.44 6.44 0 012.26 1.39zm11.57 5.36h-.93v-.25h-4.09v-.89h4.09v-1.17h-3.88v-.88h3.88v-1h-4.08v-.87h5zm4.78-4.58h-.11a6.68 6.68 0 00-2.24-1.94l.76-.73a7.09 7.09 0 012.38 1.79zM175 92.54c-.18 0-1.11-1.14-1.11-1.2s0 0 .08 0c3.86-.56 6.34-3.88 6.92-4.71a9.85 9.85 0 00.43 1.22.14.14 0 010 .06 13 13 0 01-6.18 4.36c-.02.17-.07.27-.14.27zm8.22-6.34v-1H190c.07 0 .12-.07.2-.07a2.39 2.39 0 01.79.66c0 .07-.09.12-.24.15a7.14 7.14 0 01-2.89 2.94h-.06a4.23 4.23 0 00-.68-.44 5.94 5.94 0 01-2.8 4.28h-.06a9.2 9.2 0 00-1.21-.67 4.61 4.61 0 003-4.39 5.06 5.06 0 00-.05-.77s1.07 0 1.25.06.25.08.25.14-.11.15-.28.19V88a5.45 5.45 0 002.27-1.86zm9.36.3v-1.06h5.84a1.15 1.15 0 010-.26 1.14 1.14 0 011.11-1.18 1.14 1.14 0 110 2.27 1.1 1.1 0 01-.31 0 8.5 8.5 0 01-5.15 6.25h-.15a7.32 7.32 0 00-1.13-.87 6.83 6.83 0 005.13-5.13zm6.95-1.91a.55.55 0 000 1.1.55.55 0 100-1.1zm7.68 1.35v1.85c0 2.7-.83 4.19-3.49 5.19a.09.09 0 01-.07 0 7.31 7.31 0 00-1.1-.83c2.87-.72 3.55-1.89 3.55-4.53v-2.73s.88 0 1.29.06c.12 0 .17.06.17.12s-.1.17-.27.19c-.08.23-.08.48-.08.68zm-3.5 3.85h-1.11v-4.9c1.34 0 1.44 0 1.44.18s-.11.16-.28.19v.78zm9.9-4.87h-2v7.76h-.92V84h2.94zm9.26 2.45H221v3.82c0 1.31-1.07 1.53-2.11 1.53h-.24s-.07 0-.09-.06a6 6 0 00-.69-1.1c.36 0 .8.11 1.18.11s.86-.13.86-.66v-2.89a11.76 11.76 0 01-3.91 3.72h-.05a7 7 0 00-1.07-.71 9.81 9.81 0 004.4-3.73h-3.65v-1h4.3v-.62a8.77 8.77 0 00-.05-1c1.16 0 1.41 0 1.41.18s-.11.17-.3.21v1.18h1.89zm9.22 1.84h-7.64v-1.07h7.64zm1.61-2.71v-1.06h5.85a1.15 1.15 0 010-.26 1.14 1.14 0 111.14 1.14 1.1 1.1 0 01-.31 0 8.51 8.51 0 01-5.16 6.25h-.15a6.87 6.87 0 00-1.13-.87 6.83 6.83 0 005.14-5.13zm7-1.91a.55.55 0 10.55.55.55.55 0 00-.59-.55zm10.3 3.35h-3.07a4.85 4.85 0 01-3.4 4.64h-.06a7.17 7.17 0 00-1.08-.82c2.65-.6 3.37-2.23 3.49-3.8h-3.6v-1h3.62c0-.71 0-1.65-.07-2.2 0 0 .93.05 1.25.09.11 0 .18.06.18.11s-.08.13-.25.17v1.83H251zm9.35 1.27h-7.63v-1.07h7.63zm4.65 4.16h-3v-.91h2v-7.77h1z"/></g></g></svg>