<svg xmlns="http://www.w3.org/2000/svg" viewBox="0 0 723.88 197.61"><defs><style>.cls-2{fill:#fff}.cls-4{fill:#6dc497}.cls-5{fill:#dee426}</style></defs><g id="レイヤー_2" data-name="レイヤー 2"><g id="レイヤー_1-2" data-name="レイヤー 1"><path d="M541.9 121.06c-6.93.29-16.53 2.85-16.53 7.51 0 3.41 5 3.85 7.59 3.85a33.65 33.65 0 0010.81-1.95A30.77 30.77 0 00543 135c0 .14 0 .22-.19.25a37.08 37.08 0 01-8.68 1.07c-1.62 0-12.61 0-12.61-7.48 0-3.78 3.3-6.6 7.7-8.54a11.66 11.66 0 01-1-4.84c0-1.28.08-2.78.11-4.51 0-1.17 0-2.82-.18-4.58v-.18c0-.11 0-.18.15-.18s3.15.4 4.47.62c.36.07.58.25.58.44s-.25.44-.88.62c-.47 6.67-.47 7-.47 7.62a7.85 7.85 0 00.69 3.63c1.07-.36 2.17-.66 3.3-1 1.72-.44 4-.88 5.43-1.28a.35.35 0 01.18 0c.18 0 .26.11.26.29zm11.77 14.88c-1.4-2.17-2.13-6.27-2.13-9.9v-1.39c.4-7.11 2-13.16 2.31-17.05 0-.22 0-.29.18-.29a.59.59 0 01.22 0c3.85 1 4.4 1.1 4.4 1.5s-.44.51-1.18.51a114.48 114.48 0 00-2.45 12.79 29.48 29.48 0 00-.26 3.3v.41c0 .51.07.77.15.77s.29-.3.47-.85c.3-1 1.14-2.86 2.17-5.68 0 0 .91 2.35 1.46 3.45-1.35 3.52-2.53 6.67-2.53 10a9.56 9.56 0 00.08 1.51c0 .22 0 .22-.19.29zm25.54-20.09c-2.05.4-4 .77-5.9 1.06 0 4 .26 7.37.44 10a26 26 0 017.92 4.54l-2.75 2.79c-.08.07-.11.11-.15.11s-.07 0-.14-.11a16.28 16.28 0 00-4.73-3.74c-.55 3.3-3.52 5.06-6.75 5.06-3.7 0-7.07-2.24-7.07-5 0-1.76 1.65-4.7 7.51-4.7a16.52 16.52 0 012.68.22c-.11-2.09-.26-5.27-.33-8.72-1.61.18-3.59.37-4.84.37a15 15 0 01-4.07-.52l-.66-3.44a.38.38 0 010-.18c0-.08 0-.15.14-.15a.33.33 0 01.19 0 18.93 18.93 0 005.24.87 29.08 29.08 0 004-.33v-2.74c0-1.36 0-2.79-.11-4.29 0 0 2.85.11 3.88.22.66.07 1 .25 1 .47s-.36.52-1 .66c-.11 1-.15 2.46-.19 2.83 0 .77 0 1.54-.07 2.27q2.75-.5 5.72-1.21zm-11.91 13c-2 0-3.74.66-3.74 1.76 0 .69 1 1.64 3.37 1.64a3.24 3.24 0 003.52-2.93 11.78 11.78 0 00-3.15-.49z" fill="#4c4949"/><path class="cls-2" d="M200.66 157.84V56.61h-61.6v101.23z"/><path d="M210.61 111.64c0 19.86-.16 39.72.09 59.57a11.79 11.79 0 01-12.37 12.35c-19.17-.29-38.35-.25-57.52 0A11.68 11.68 0 01129 171.68c.13-40.12.06-80.24.06-120.37 0-7.09 4.59-11.69 11.68-11.69h58.34c6.89 0 11.55 4.67 11.55 11.62q0 30.2-.02 60.4zm-32.92-63h0a1.89 1.89 0 00-1.89-1.89h-11.87a1.88 1.88 0 00-1.93 1.88h0a1.89 1.89 0 001.89 1.89h11.91a1.89 1.89 0 001.89-1.89zM170 163.86a7.14 7.14 0 00-7.42 7.18 7.29 7.29 0 1014.58.26 7.12 7.12 0 00-7.16-7.44z" fill="none" stroke="#4c4949" stroke-miterlimit="10" stroke-width="1.11" id="gNCM02"/><rect class="cls-4" x="153.62" y="92.91" width="32.48" height="32.48" rx="5.66"/><path class="cls-2" d="M177.88 104.74v10.61a1.8 1.8 0 01-1.79 1.8h-6a.83.83 0 00-.38.1l-5.13 2.94.56-2a.76.76 0 00-.13-.68.8.8 0 00-.62-.31h-.78a1.81 1.81 0 01-1.8-1.8v-12.5a1.81 1.81 0 011.8-1.8H174l.38-.37q.61-.6 1.29-1.2h-12.04a3.36 3.36 0 00-3.36 3.37v12.45a3.37 3.37 0 003.11 3.36l-.8 2.89a.77.77 0 00.75 1 .76.76 0 00.39-.1l6.6-3.77h5.77a3.37 3.37 0 003.36-3.37V103c-.29.3-.58.61-.86.92s-.47.54-.71.82z"/><path class="cls-2" d="M165.3 106.09a6.06 6.06 0 011.91.5 23.57 23.57 0 012.27 1.08.25.25 0 00.37-.07 78.54 78.54 0 015.49-5.9 23.23 23.23 0 013-2.57 4.13 4.13 0 011.6-.75 1.16 1.16 0 01.64.05.68.68 0 01.38 1 2.69 2.69 0 01-.46.55c-1 1-2 1.94-3 3a35.43 35.43 0 00-4.22 5.9 43.24 43.24 0 00-2.69 5.62c-.09.22-.2.4-.46.42a.54.54 0 01-.55-.35 36.72 36.72 0 00-2.81-4.39 15 15 0 00-2.42-2.61.85.85 0 01.28-1.42 1.7 1.7 0 01.67-.06z" id="gfYiMs"/><circle class="cls-2" cx="645.74" cy="45.78" r="45.77"/><path class="cls-2" d="M616.35 67.67l-28.01 3.71 20.48-22.09"/><path class="cls-5" d="M666.79 51.45V24.99c0-2.29-1.22-3.5-3.52-3.51h-12.76c-1.3 0-1.84-.33-2.09-1.37a1 1 0 00-1.15-.78h-.11a19.1 19.1 0 01-2.93 0c-1.35-.14-2.09.34-2.35 1.52-.1.47-.35.61-1 .62H628c-2.4 0-3.62 1.23-3.62 3.66v42.52a3.1 3.1 0 003.22 3.18h35.99a3.77 3.77 0 001.78-.5 3.24 3.24 0 001.45-3q-.03-7.96-.03-15.88zm-27.36-26h11.71a.16.16 0 00.17-.17v-1.46h11.83c1.13 0 1.31.18 1.31 1.31v42.11c0 1-.19 1.24-1.21 1.24H628c-1.09 0-1.26-.18-1.26-1.26V25.1c0-1.09.19-1.28 1.25-1.28h11.3v1.43a.17.17 0 00.14.17z"/><rect class="cls-5" x="641.5" y="42.87" width="18.85" height="1.87" rx=".91"/><path class="cls-5" d="M642.44 33h17a.92.92 0 000-1.83h-17a.92.92 0 000 1.83z"/><rect class="cls-5" x="641.53" y="35.51" width="18.82" height="1.87" rx=".91"/><path class="cls-5" d="M642.4 49h17a.91.91 0 000-1.82h-17a.91.91 0 000 1.82zm17.04 5.59h-17a.91.91 0 00-.91.91.91.91 0 00.91.91h17a.92.92 0 000-1.83z"/><rect class="cls-5" x="641.51" y="58.89" width="18.83" height="1.86" rx=".91"/><path class="cls-5" d="M637.34 55.53a.88.88 0 00-1.23-.06l-2.74 2.42a.53.53 0 01-.4.13.54.54 0 01-.37-.19l-.72-.87a.91.91 0 00-.61-.31.87.87 0 00-.66.23.84.84 0 00-.29.61.92.92 0 00.22.63l1.88 2.07a.84.84 0 00.65.29.86.86 0 00.58-.22l3.75-3.34a.84.84 0 00.29-.61.82.82 0 00-.22-.63zm0-23.62a.89.89 0 00-1.23-.07l-2.73 2.42a.57.57 0 01-.4.13.53.53 0 01-.36-.17l-.75-.88a.92.92 0 00-.62-.3 1 1 0 00-.66.25.89.89 0 000 1.23l1.87 2a.87.87 0 00.65.29.93.93 0 00.58-.22l3.75-3.34a.89.89 0 00.3-.61.87.87 0 00-.23-.63zm-4.83 16.43a.89.89 0 00.61.24.9.9 0 00.58-.21l3.69-3.27a.87.87 0 00.08-1.23l-.13-.14a.87.87 0 00-.6-.3.89.89 0 00-.64.23L633.49 46a.54.54 0 01-.73 0l-1-1a.81.81 0 00-.64-.24.83.83 0 00-.61.29l-.06.06a.87.87 0 00.05 1.21z"/><circle class="cls-2" cx="45.78" cy="96.58" r="45.77"/><path class="cls-2" d="M82.23 100.39l23.12 16.25-30.03 2.38"/><path class="cls-5" d="M67.85 77.85h-27.7a3.47 3.47 0 00-2.73 1 3.8 3.8 0 00-.65 3h12c4.06 0 6.4 2.36 6.4 6.46v15.83a4.47 4.47 0 011-.12 6.79 6.79 0 013.6 1.39l.47.29c2.84 1.74 5.77 3.54 8.68 5.27a2.09 2.09 0 00.8.22 2.29 2.29 0 00-.18-.77c-.7-1.41-1.42-2.8-2.18-4.26l-1-1.93.73-.08h.45c2.79-.1 3.73-1.08 3.73-3.89V81.4c.12-2.4-1.01-3.54-3.42-3.55z"/><path class="cls-5" d="M48.77 84.61H21.21c-2.43 0-3.57 1.12-3.57 3.51v19.17c0 2.42 1.1 3.5 3.55 3.51h8.75l-1.07 2.07c-.77 1.49-1.5 2.91-2.2 4.32a2.37 2.37 0 00-.16.75 2.16 2.16 0 00.74-.19l4.2-2.54c2-1.22 4.07-2.48 6.12-3.69a5.43 5.43 0 012.49-.71h8.77c2.45 0 3.5-1.07 3.5-3.55v-19c.03-2.57-1.05-3.65-3.56-3.65zM50 108.5a1.91 1.91 0 01-1.39.4c-3.42-.05-6.53 0-9.52 0a3.85 3.85 0 00-1.76.5c-1.26.71-2.53 1.49-3.75 2.24l-1.45.89-.19.11-.49-.49 1.63-3.23H21.4a1.85 1.85 0 01-1.41-.4 1.92 1.92 0 01-.42-1.42c.05-6 .05-12.16 0-18.8a1.79 1.79 0 01.4-1.34 1.82 1.82 0 011.36-.4h27.31a1.84 1.84 0 011.38.4 1.74 1.74 0 01.39 1.32v18.93a1.69 1.69 0 01-.41 1.29z"/><path class="cls-5" d="M43.67 96.49H26.42c-1.58 0-1.79.65-1.8 1.21a1.07 1.07 0 00.29.83 2.13 2.13 0 001.57.46Q35 99 43.61 99c.66 0 1.79-.16 1.81-1.24a1.07 1.07 0 00-.28-.81 2 2 0 00-1.47-.46zm-17.36-3.62h15.34c.66 0 1.78-.17 1.78-1.26a1 1 0 00-.29-.8 2 2 0 00-1.48-.45H26.29c-1.13 0-1.59.34-1.67 1.2a1.07 1.07 0 00.26.85 1.92 1.92 0 001.43.46zM38 102.61H26.21c-1.63 0-1.63.93-1.63 1.23 0 1 .89 1.24 1.64 1.25H38c1.08 0 1.62-.43 1.63-1.25.04-.53-.13-1.22-1.63-1.23z"/><circle class="cls-2" cx="678.1" cy="151.84" r="45.77"/><path class="cls-2" d="M646.14 133.9l-28.25-.08 23.14 19.27"/><g id="LN7oPW"><path class="cls-5" d="M661 167.61a10.44 10.44 0 0113.6-6.32 9.33 9.33 0 0112.2-5.21 8.3 8.3 0 0111.31-4.4c.15-.31.29-.61.44-.9a7.33 7.33 0 0113.82 3 1.39 1.39 0 01-.25.93 1.17 1.17 0 01-.9.24c-.43 0-.57-.44-.65-.85a10.84 10.84 0 00-.55-2.28 5.43 5.43 0 00-5.26-3.16 5.56 5.56 0 00-4.9 3.58.62.62 0 00.18.79 8.09 8.09 0 012.66 5.94.9.9 0 01-1.8.06 7.87 7.87 0 00-.14-1.38 6.29 6.29 0 00-4.75-4.79 6.08 6.08 0 00-6.42 2.11 14.29 14.29 0 00-1.17 1.79 32 32 0 012.37 2.58 8.59 8.59 0 011.7 4.94c0 .72-.29 1.14-.86 1.17s-.93-.38-1-1.08a7.19 7.19 0 00-2.76-5.53 7.42 7.42 0 00-10.75 1.52c-.3.43-.51.93-.78 1.39-.17.29-.1.46.19.66a10.2 10.2 0 014.48 7.65v.53c0 .68-.31 1.09-.86 1.12s-.88-.38-1-1a13 13 0 00-.46-2.5 8.42 8.42 0 00-8-5.75 8.51 8.51 0 00-8 5.67.52.52 0 00.19.72 10.92 10.92 0 014.47 8.46q0 .93-.6 1.14a.91.91 0 01-1.2-.93 9.58 9.58 0 00-1.1-4.16 9.22 9.22 0 00-17.15 2.42 16.33 16.33 0 00-.23 1.71c-.06.6-.38 1-.86 1a.91.91 0 01-.89-1 11 11 0 0115.21-9.93z"/><path class="cls-5" d="M649.63 157.94a6.74 6.74 0 116.75 6.76 6.74 6.74 0 01-6.75-6.76zm6.76 4.95a4.94 4.94 0 10-5-4.93 5 5 0 005 4.93zm14.35-16.6a6.33 6.33 0 11-6.3 6.35 6.34 6.34 0 016.3-6.35zm-4.48 6.31a4.51 4.51 0 104.52-4.5 4.49 4.49 0 00-4.52 4.5zm16.94 1.51a5.72 5.72 0 115.74-5.68 5.71 5.71 0 01-5.74 5.68zm-3.88-5.72a3.91 3.91 0 103.9-3.9 3.92 3.92 0 00-3.9 3.9zM694.5 150a5.12 5.12 0 115.09-5.15 5.1 5.1 0 01-5.09 5.15zm0-8.43a3.32 3.32 0 103.27 3.36 3.32 3.32 0 00-3.26-3.41zm10.4-4.5a4.6 4.6 0 11-4.49 4.93 4.6 4.6 0 014.49-4.93zm2.93 4.55a2.81 2.81 0 10-2.8 2.84 2.81 2.81 0 002.8-2.84z"/></g><path class="cls-5" d="M660.63 137.92a13.34 13.34 0 00-2-1.16 9.52 9.52 0 00-13.14 8.58 1 1 0 00.27.78.91.91 0 00.65.27c.49 0 .83-.38.89-1a12.81 12.81 0 01.2-1.44 7.67 7.67 0 0114.26-2 7.89 7.89 0 01.92 3.47 1.06 1.06 0 00.4.83.9.9 0 00.51.15.84.84 0 00.31-.05c.45-.14.66-.52.62-1.12a9.46 9.46 0 00-3.89-7.31zm-5.63-3.2a5.9 5.9 0 10-5.89-5.9 5.87 5.87 0 005.89 5.9zm-4-5.89a4 4 0 014-4 4.2 4.2 0 012.94 1.24 3.8 3.8 0 011.13 2.75 4 4 0 01-4 4.08 4.1 4.1 0 01-2.85-1.18 4 4 0 01-1.3-2.89z"/><path d="M307.54 95.39v41.52a7.05 7.05 0 01-7 7h-23.41a3.14 3.14 0 00-1.52.4l-20.07 11.48 2.22-8a3.06 3.06 0 00-2.95-3.88h-3a7.05 7.05 0 01-7-7V88.18a7.05 7.05 0 017-7h40.66l1.48-1.45c1.6-1.55 3.27-3.12 5-4.68h-47.18a13.19 13.19 0 00-13.17 13.13v48.73A13.18 13.18 0 00250.79 150l-3.14 11.33a3.08 3.08 0 003 3.88 3.1 3.1 0 001.52-.41L278 150.08h22.5a13.18 13.18 0 0013.16-13.17V88.55q-1.73 1.77-3.38 3.61c-.93 1.05-1.84 2.13-2.74 3.23z"/><path class="cls-4" d="M258.29 100.69a22.26 22.26 0 017.47 2 80.94 80.94 0 018.88 4.21 1 1 0 001.46-.28 312.8 312.8 0 0121.48-23.1 90.65 90.65 0 0111.9-10 16.42 16.42 0 016.25-2.94 4.68 4.68 0 012.49.21 2.61 2.61 0 011.5 4.06 10.29 10.29 0 01-1.79 2.16c-3.93 3.84-7.95 7.61-11.6 11.74a138.59 138.59 0 00-16.49 23.1 168.3 168.3 0 00-10.53 22c-.34.86-.8 1.57-1.81 1.67a2.13 2.13 0 01-2.13-1.37 148.84 148.84 0 00-11-17.21 59.65 59.65 0 00-9.5-10.19c-2-1.66-.92-4.86 1.11-5.57a6.71 6.71 0 012.31-.49z" id="gfYiMs-2" data-name="gfYiMs"/><path d="M344.58 91.93c-5.43 0-9.18 2.23-11.47 6.81-1.83 3.65-2.71 8.84-2.71 15.88 0 5.55.26 11.28 2.21 15.6 2.15 4.77 6.07 7.1 12 7.1 5.39 0 9.12-2.23 11.4-6.82 1.82-3.64 2.71-8.84 2.71-15.88 0-5.54-.27-11.27-2.21-15.59-2.17-4.78-6.06-7.1-11.93-7.1zm0 40.09c-5.82 0-6.61-8.31-6.61-16.45 0-12.52 2.1-18.35 6.61-18.35 3.23 0 6.53 1.91 6.53 16 0 11.3-1.11 18.78-6.53 18.78zm33.97-27.42h-.36a8.27 8.27 0 00-2.28.32 5.74 5.74 0 00-3.86 2.8.07.07 0 01-.09 0 .1.1 0 01-.08-.08l-.08-3.1h-6.1v43.16l6.46-1.92v-11.42a.09.09 0 01.07-.08.08.08 0 01.1 0 6.4 6.4 0 004.44 2.49 7.55 7.55 0 001.55.15h.18a8.87 8.87 0 007.42-4.5c1.89-3 2.89-7.11 2.89-12 0-7.2-1.81-15.82-10.26-15.82zm-6.44 5.18a.09.09 0 01-.08 0 .09.09 0 01-.07-.09.1.1 0 01.09-.09.09.09 0 01.08 0 .07.07 0 010 .09zm4.81 22.22c-3.2 0-4.76-3.74-4.76-11.45s1.56-11.45 4.76-11.45 4.68 3.85 4.68 11.45S380 132 376.92 132zM407 104.06c-8 0-12 5.26-12 15.62 0 12.44 3.33 17.28 11.89 17.28a10.73 10.73 0 008.2-3.2 10.83 10.83 0 002.64-7.15h-6.09a8.52 8.52 0 01-1.08 3.68 3.92 3.92 0 01-3.53 2c-4.66 0-5.12-5.27-5.19-11.15a.08.08 0 010-.07h16.54v-4.49c0-3.89-1.05-7.08-3-9.23a11 11 0 00-8.38-3.29zm4.82 12.73h-9.93a.09.09 0 01-.08-.09c0-3.62.86-7.94 5-7.94 4.63 0 5.13 5.56 5.13 7.94a.09.09 0 01-.16.09zm28.67-12.19h-.15a12.35 12.35 0 00-3.5.41 7 7 0 00-4.5 2.78.08.08 0 01-.1 0 .09.09 0 01-.06-.08v-3.11h-6.47v31.8l6.84-1.92V114a4.43 4.43 0 014.53-4.61c2.17 0 3.57 1.57 3.57 4v23l6.84-1.92v-23.42c0-3.14-2.16-6.36-7-6.44zm26.42-.54c-8.1 0-12.21 5.26-12.21 15.62 0 12.27 3.5 17.28 12.06 17.28a10.75 10.75 0 008.21-3.2 10.89 10.89 0 002.64-7.15h-6.1a8.35 8.35 0 01-1.07 3.68 4 4 0 01-3.53 2 4.37 4.37 0 01-3.32-1.25c-1.86-1.91-2-5.89-1.88-9.91a.09.09 0 01.09-.08h16.48v-4.49c0-3.89-1-7.08-3-9.23a11 11 0 00-8.37-3.27zm4.81 12.73h-9.92a.09.09 0 01-.09-.09c0-3.62.86-7.94 5-7.94 4.62 0 5.12 5.56 5.12 7.94a.09.09 0 01-.11.09zm24.66-11.46a7.2 7.2 0 00-4.09 2.74.1.1 0 01-.1 0 .1.1 0 01-.07-.09v-3.38h-6.46v31.8l6.83-1.92v-16.64c0-6.4 4-7.5 6.38-7.59a12.9 12.9 0 012.07 0v-5.72a17.21 17.21 0 00-4.56.8zM240 51.17v1.52c0 1.41.1 2.1 2.89 2.1a37.92 37.92 0 005.63-.52 15.46 15.46 0 00-.62 2c0 .05 0 .1-.11.1-1.44.15-3.25.25-4.63.25-3.63 0-4.92-1.12-4.92-3.31 0-1.26.13-7.09.13-7.09v-1.61c.42 0 1.67.07 2.13.13.16 0 .25.12.25.2s-.17.27-.49.32c0 .36 0 .71-.05 1.08 0 1 0 2-.08 3a26.4 26.4 0 006.41-2.92c.39.32 1.56 1.54 1.56 1.88 0 .1-.07.13-.18.13a1.08 1.08 0 01-.5-.15 49.52 49.52 0 01-7.42 2.89zm8.07-4.12a8.36 8.36 0 00-1.79-2.28l1-.61a8.73 8.73 0 011.87 2.17zM250 46a9.1 9.1 0 00-1.8-2.11l1-.63a8.79 8.79 0 011.87 2zm7.15 5.4s0 .07-.07.07a.15.15 0 01-.08 0 10.17 10.17 0 00-4-2.13l1-1.39a11.46 11.46 0 014 2zm-1.06 5.88c-.08 0-.18-.05-.32-.2-.3-.37-1.2-1.32-1.47-1.69a.2.2 0 010-.08c0-.07 0-.1.15-.12 6.23-1.09 10.32-6.44 11.61-8.4a15.27 15.27 0 00.75 2.08.16.16 0 010 .09 23.18 23.18 0 01-10.47 7.84c-.01.26-.1.48-.25.48zm3.15-9.15s-.05.06-.08.06 0 0-.07-.06a10 10 0 00-3.68-2.58l1.08-1.23a10.9 10.9 0 013.82 2.34zm5-1.39a9.08 9.08 0 00-1.89-2l1-.69a8.71 8.71 0 012 1.86zm1.76-1.22a8.15 8.15 0 00-1.89-1.86L265 43a7.36 7.36 0 012 1.72zm11.21.48h2.09c.19 0 .25-.14.37-.14a3.51 3.51 0 011.26 1.09c0 .12-.17.17-.4.24a24.73 24.73 0 01-3.36 3.58v7.12h-1.83l.11-5.71a20.45 20.45 0 01-4.68 2.5h-.08a.12.12 0 01-.1 0 13.06 13.06 0 00-1.59-1.32 18.06 18.06 0 009-5.81l-6.94.12V46h4.38v-1.3a10 10 0 00-.07-1.36c2.18.08 2.39.12 2.39.33s-.18.27-.48.32a9 9 0 00-.05 1.14zm4.66 8.54a.16.16 0 01-.09 0 .12.12 0 01-.1-.05 16.83 16.83 0 00-4.19-3.06l1.16-1.14a20 20 0 014.44 2.88zm5.45-7.31v-1.69h7.63c.13 0 .2-.14.31-.14s1.38.91 1.38 1.13-.15.21-.37.26a30.29 30.29 0 01-2.51 4.31 36.47 36.47 0 015.09 4.59l-1.63 1.24h-.11a28.13 28.13 0 00-4.38-4.47 14.86 14.86 0 01-5.89 4.46.1.1 0 01-.1 0 11.45 11.45 0 00-1.7-1.25 15.74 15.74 0 009-8.4zm25.52 9.33H311v-.72h-9.15V54H311v-5.9h-9.1v-1.79h10.94zm13.71.81s0 .06-.07.06h-.05a28.44 28.44 0 00-9.75-2.83l.77-1.73a38.43 38.43 0 019.72 2.55zm-.67-10s0 .08-.09.08a.06.06 0 01-.05 0 27.82 27.82 0 00-8.22-1.12l.57-1.67a44.07 44.07 0 018.32 1zm-.61 4.35a.08.08 0 01-.08.07.06.06 0 01-.05 0 23.41 23.41 0 00-7.39-1.44l.62-1.66a33.69 33.69 0 017.34 1.24zm12.86 3.07h2.66v1.59h-10.44v-1.59h6.14l.36-4.14h-5.37v-1.53h7.17zm18.47.88h-12.75V53.8h12.75zm-1.38-7.45h-10v-1.81h10zm18.14.1h-3.84c-1 7.54-6.3 9-6.33 9a.13.13 0 01-.12-.05 14.29 14.29 0 00-2-1.27c4.47-1.21 6-4.17 6.41-7.64h-3.58a10.3 10.3 0 01-2.73 3.64.13.13 0 01-.08 0 11.65 11.65 0 00-1.81-.69 13.3 13.3 0 004.49-7.64s1.38.31 1.88.44c.25.07.37.17.37.27s-.25.25-.59.27a19.41 19.41 0 01-.72 2.07h8.65zm15.77 3.08h-12.9v-1.81h12.9zm7.34 0s-.05.07-.07.07a.19.19 0 01-.08 0 10.1 10.1 0 00-4-2.13l1-1.39a11.46 11.46 0 014 2zm-1.06 5.88c-.08 0-.18-.05-.31-.2-.31-.37-1.21-1.32-1.48-1.69a.2.2 0 010-.08c0-.07.05-.1.15-.12 6.23-1.09 10.32-6.44 11.61-8.4a15.27 15.27 0 00.75 2.08v.09a23.25 23.25 0 01-10.47 7.84c-.01.26-.1.48-.25.48zm3.15-9.15s-.05.06-.08.06 0 0-.07-.06a10 10 0 00-3.68-2.58l1.09-1.23a11.09 11.09 0 013.82 2.34zm19.56 9.07h-1.56v-.44h-6.92v-1.49h6.92v-2H410V51.8h6.55v-1.74h-6.9v-1.47h8.46zm8.08-7.74s-.07.07-.1.07-.05 0-.08-.05a11.5 11.5 0 00-3.77-3.29l1.27-1.19a11.9 11.9 0 014 3zm-2 7.57c-.31 0-1.86-1.93-1.86-2s0-.06.13-.08c6.52-1 10.71-6.57 11.68-8a16.74 16.74 0 00.74 2.06.54.54 0 010 .1.21.21 0 01-.05.09 22 22 0 01-10.44 7.35c-.03.3-.11.45-.24.45zm13.85-10.72V44.6h11.38c.11 0 .2-.11.33-.11a4.12 4.12 0 011.34 1.12c0 .12-.15.2-.4.25a12.27 12.27 0 01-4.89 5h-.07a.17.17 0 01-.1 0 5.91 5.91 0 00-1.14-.86 10.1 10.1 0 01-4.74 7.24.21.21 0 01-.1 0 .08.08 0 01-.08 0 14.37 14.37 0 00-2.05-1.14 7.77 7.77 0 005.11-7.4 9.6 9.6 0 00-.08-1.31s1.79 0 2.11.1.42.14.42.24-.19.25-.47.31a10.12 10.12 0 010 1.13v.16a9.23 9.23 0 003.82-3.15zm15.82.52V45h9.87a2.22 2.22 0 01-.05-.45 1.93 1.93 0 111.93 1.92 1.81 1.81 0 01-.52-.06c-1.61 6.19-5.08 9.06-8.72 10.57h-.11a.21.21 0 01-.14-.08 11.76 11.76 0 00-1.91-1.46 11.54 11.54 0 008.68-8.66zm11.75-3.24a.93.93 0 000 1.86.93.93 0 100-1.86zm12.97 2.28v3.14c0 4.55-1.4 7.07-5.89 8.76a.13.13 0 01-.08 0 .18.18 0 01-.12 0 12 12 0 00-1.84-1.41c4.84-1.21 6-3.19 6-7.66v-.3c0-.62 0-3.1-.05-4.31 0 0 1.49 0 2.18.1.22 0 .3.1.3.21s-.17.28-.47.33c-.03.39-.03.81-.03 1.14zm-5.92 6.5h-1.86V46c0-.48 0-1.29-.05-1.87 2.27.06 2.43.08 2.43.3s-.18.28-.48.33v1.31zm16.74-8.22H486v13.12h-1.56V42.61h5zm15.64 4.14h-3.17l.05 4.77c0 .84.05 1.53.05 1.68v.08c0 2.23-1.8 2.6-3.56 2.6H498c-.08 0-.11 0-.15-.1a9.25 9.25 0 00-1.17-1.86c.62 0 1.36.18 2 .18.81 0 1.46-.22 1.46-1.12v-4.87a19.85 19.85 0 01-6.65 6.21.21.21 0 01-.09-.05 11.28 11.28 0 00-1.81-1.2 16.6 16.6 0 007.44-6.3h-6.16v-1.7h7.25v-1c0-.5 0-.92-.08-1.61 2 0 2.38.07 2.38.3s-.19.29-.51.36v2h3.18zm15.59 3.11h-12.9v-1.81h12.9zm2.73-4.57V45h9.87a2.22 2.22 0 010-.45 1.93 1.93 0 111.93 1.92 1.85 1.85 0 01-.52-.06c-1.61 6.19-5.08 9.06-8.71 10.57h-.12s-.08 0-.14-.08a11.76 11.76 0 00-1.91-1.46 11.54 11.54 0 008.68-8.66zm11.75-3.24a.93.93 0 10.94.93.93.93 0 00-.94-.93zm17.41 5.67h-5.19a8.23 8.23 0 01-5.73 7.84h-.09a.14.14 0 01-.1 0 11.65 11.65 0 00-1.81-1.39c4.48-1 5.68-3.77 5.88-6.41h-6.08v-1.79h6.12c0-1.2 0-2.78-.12-3.71 0 0 1.57.08 2.11.15.2 0 .32.1.32.18s-.15.22-.44.29v3.09h5.18zm15.87 2.14h-12.9v-1.81h12.9zm7.83 7.02h-5v-1.54h3.41V43.76h1.56z"/></g></g></svg>