<svg xmlns="http://www.w3.org/2000/svg" viewBox="0 0 456.36 79.07"><defs><pattern id="a" data-name="新規パターンスウォッチ 2" width="21.95" height="21.95" patternTransform="rotate(-45 -10.761 39.397) scale(.36)" patternUnits="userSpaceOnUse"><path fill="none" d="M0 0h21.95v21.95H0z"/><path fill="#dee426" d="M0 0h4.41v21.95H0z"/></pattern></defs><g data-name="レイヤー 2"><path d="M55.33 77.87l12.93-42.82-23.07 27.86H35.05L28.7 35.05 15.77 77.87H.79L23 4.4h14.74l8 39.73L77.73 4.4h14.76L70.31 77.87zm37.19 0l16.23-53.76h14l-16.22 53.76zm25.26-60.47c-4.85 0-7.69-3.81-6.28-8.46A12.55 12.55 0 01122.86.58c4.85 0 7.61 3.72 6.21 8.36a12.55 12.55 0 01-11.29 8.46zm28.01 61.09c-8.84 0-16.53-.93-21.59-7.74L136 62c3.29 4.44 9.14 5.06 13.46 5.06 4.85 0 10.38-1.55 11.6-5.58.8-2.68-.14-4.54-4.44-5l-8.62-.79c-9.85-.93-14.82-5.16-11.83-15.07 3.36-11.14 15.41-17.13 26.84-17.13 8.73 0 15.62 1.45 19.54 6.3l-11.14 8.35c-2.39-2.78-7.1-3.61-11.95-3.61-5.61 0-8.73 2.48-9.54 5.16-.59 2-.41 4.23 4.42 4.65l8.59.82c10.79 1 14.68 6.71 11.94 15.79-3.54 11.86-15.82 17.54-29.08 17.54zm58.73 0c-8.83 0-16.53-.93-21.59-7.74L194.74 62c3.26 4.42 9.15 5 13.46 5 4.85 0 10.38-1.55 11.6-5.58.81-2.68-.14-4.54-4.44-5l-8.58-.82c-9.86-.93-14.83-5.16-11.84-15.07 3.37-11.14 15.41-17.13 26.84-17.13 8.73 0 15.62 1.45 19.55 6.3l-11.15 8.35c-2.39-2.78-7.1-3.61-12-3.61-5.61 0-8.73 2.48-9.54 5.16-.59 2-.41 4.23 4.42 4.65l8.59.82c10.79 1 14.68 6.71 11.94 15.79-3.53 11.95-15.81 17.63-29.07 17.63zm41.15-.62l16.23-53.76h14l-16.22 53.76zm25.27-60.47c-4.85 0-7.69-3.81-6.29-8.46A12.57 12.57 0 01276 .58c4.85 0 7.6 3.72 6.2 8.36a12.53 12.53 0 01-11.26 8.46zm50.37 54.49a31.64 31.64 0 01-19.45 6.6c-8.3 0-13-3.1-15.36-6.6-3.54-5.06-3-11.15 0-21s6.06-15.79 12.66-20.84a31.22 31.22 0 0119.34-6.61c8.3 0 13.08 3.1 15.47 6.61 3.54 5 3 11.14.07 20.84s-6.13 15.94-12.73 21zm-.63-33.95c-1.15-1.55-3.06-2.38-5.86-2.38a11.6 11.6 0 00-7.19 2.38c-3.75 2.78-5.47 7.43-7.15 13s-2.8 10.32-.73 13.1c1.15 1.55 2.95 2.38 5.75 2.38a11.87 11.87 0 007.29-2.42c3.76-2.78 5.51-7.53 7.2-13.1s2.76-10.18.69-12.96zm56.6 39.93l9.82-32.5c2.21-7.33-1.89-9.81-6.31-9.81s-10.13 2.44-12.34 9.81l-9.82 32.5h-14l16.24-53.76h13.68l-1.49 4.95a26.14 26.14 0 0115.69-5.57c5.61 0 9.61 1.76 11.83 4.75 3.22 4.33 2.88 9.39 1.1 15.27l-10.39 34.36zm47.23.31c-4.64 0-7.32-3.61-6-8.05A12.18 12.18 0 01429.4 62c4.63 0 7.39 3.72 6.05 8.15a12.16 12.16 0 01-10.94 8.03zm12.21-23.32h-10.34L438.16 4.4h17.36z" stroke="#4c4949" stroke-miterlimit="10" stroke-width="1.17" fill="url(#a)" data-name="レイヤー 1"/></g></svg>